<svg xmlns="http://www.w3.org/2000/svg" version="1.1" viewBox="-5.0 -10.0 110.0 135.0">
 <path d="m75 58.75v31.25c0 5.5234 4.4766 10 10 10s10-4.4766 10-10v-31.25c0.22656-0.17578 0.44922-0.375 0.67578-0.57422 1.1758-1.1758 1.8242-2.75 1.8242-4.4258s-0.64844-3.25-1.8242-4.4258-2.75-1.8242-4.4258-1.8242h-12.5c-1.6484 0-3.25 0.64844-4.4258 1.8242s-1.8242 2.75-1.8242 4.4258 0.64844 3.25 1.8242 4.4258c0.19922 0.19922 0.42578 0.39844 0.67578 0.57422zm-70-41.125c-2.8516 0.57422-5 3.1016-5 6.125s2.1484 5.5508 5 6.125v58.051c-1.0508 0.375-2 0.97656-2.8008 1.7734-1.3984 1.3984-2.1992 3.3242-2.1992 5.3008v2.4766c0 2.3516 2.5 2.5234 2.5 2.5234h55.102c0.47656-0.074219 2.3984-0.47656 2.3984-2.5234v-2.4766c0-2-0.80078-3.8984-2.1992-5.3008-1.3984-1.3984-3.3242-2.1992-5.3008-2.1992h-35v-57.5h17.523v3.7734c-8.75 3.1016-15.023 11.426-15.023 21.227 0 12.426 10.074 22.5 22.5 22.5s22.5-10.074 22.5-22.5c0-9.6992-6.1758-18-14.801-21.148 0 0 0-2.4258-0.023438-3.8516h1.0742c3.4492 0 6.25-2.8008 6.25-6.25s-2.8008-6.25-6.25-6.25h-1.1758l-0.050781-5.125c1.1758-0.25 2.2734-0.82422 3.1484-1.6992 1.1758-1.1758 1.8242-2.75 1.8242-4.4258s-0.64844-3.25-1.8242-4.4258-2.75-1.8242-4.4258-1.8242h-12.5c-1.6484 0-3.25 0.64844-4.4258 1.8242-1.1758 1.1758-1.8242 2.75-1.8242 4.4258s0.64844 3.25 1.8242 4.4258c0.875 0.875 1.9766 1.4492 3.1758 1.6992v5.125h-17.5l0.003906-11.25c0-1.6484-0.64844-3.25-1.8242-4.4258s-2.75-1.8242-4.4258-1.8242c0 0-0.64844 0 0 0-1.6484 0-3.25 0.64844-4.4258 1.8242s-1.8242 2.75-1.8242 4.4258zm2.5 74.875h45c0.67578 0 1.3008 0.27344 1.7734 0.72656 0.47656 0.47656 0.72656 1.1016 0.72656 1.7734h-50c0-0.67578 0.27344-1.3008 0.72656-1.7734 0.47656-0.47656 1.1016-0.72656 1.7734-0.72656zm72.5-19.727v17.227c0 2.75 2.25 5 5 5s5-2.25 5-5v-12.676c-2.875-0.42578-4.625-1.5742-6.375-2.75-1.0508-0.69922-2.0742-1.3984-3.625-1.8008zm5 12.227c1.375 0 2.5 1.125 2.5 2.5s-1.125 2.5-2.5 2.5-2.5-1.125-2.5-2.5 1.125-2.5 2.5-2.5zm-72.5-55h-2.5v57.5h2.5zm72.5 47.5c1.375 0 2.5 1.125 2.5 2.5s-1.125 2.5-2.5 2.5-2.5-1.125-2.5-2.5 1.125-2.5 2.5-2.5zm-39.824-47.5h-5.1758v5.625c0 1.1484-0.77344 2.1484-1.875 2.4258-7.5508 1.9258-13.148 8.8008-13.148 16.949 0 9.6484 7.8516 17.5 17.5 17.5 9.6484 0 17.5-7.8516 17.5-17.5 0-8.0742-5.4766-14.875-12.926-16.898-1.0742-0.30078-1.8242-1.2734-1.8516-2.3984l-0.050781-5.7266zm44.824 42.227v-12.227h-10v7.6758c2.875 0.42578 4.625 1.5742 6.375 2.75 1.0508 0.69922 2.0742 1.3984 3.625 1.8008zm-32.5-17.051v-0.30078c0-0.25-0.050781-1.5742-1.3516-2.875-0.89844-0.875-2.6016-1.9766-6.1484-1.9766-2.8008 0-4.4766 1.0742-5.9258 2.4258-0.47656 0.44922-0.92578 0.89844-1.3984 1.3516-0.64844 0.625-1.375 1.2266-2.6758 1.2266-2.6992 0-9.1758-2.3516-9.1758-2.3516-0.77344-0.27344-1.625-0.14844-2.2734 0.32422-0.64844 0.47656-1.0508 1.2266-1.0508 2.0508 0 0 0 15 15 15 14.074 0 14.949-13.227 15-14.852zm-5.0234 0.30078c-0.14844 1.9766-1.2734 9.5234-9.9766 9.5234-5.9258 0-8.3516-3.5234-9.3242-6.375 2.3516 0.67578 5.1758 1.375 6.8242 1.375 2.8008 0 4.4766-1.0742 5.9258-2.4258 0.47656-0.44922 0.92578-0.89844 1.3984-1.3516 0.64844-0.625 1.375-1.2266 2.6758-1.2266 1.1758 0 2.1484 0.32422 2.4766 0.47656zm25.023-1.7266c0-0.32422 0.125-0.64844 0.375-0.875 0.22656-0.22656 0.55078-0.375 0.875-0.375h12.5c0.32422 0 0.64844 0.125 0.875 0.375 0.22656 0.22656 0.375 0.55078 0.375 0.875s-0.125 0.64844-0.375 0.875c-0.22656 0.22656-0.55078 0.375-0.875 0.375h-12.5c-0.32422 0-0.64844-0.125-0.875-0.375-0.22656-0.22656-0.375-0.55078-0.375-0.875zm-38.75-13.75c-3.4492 0-6.25 2.8008-6.25 6.25s2.8008 6.25 6.25 6.25 6.25-2.8008 6.25-6.25-2.8008-6.25-6.25-6.25zm0 5c0.69922 0 1.25 0.55078 1.25 1.25s-0.55078 1.25-1.25 1.25-1.25-0.55078-1.25-1.25 0.55078-1.25 1.25-1.25zm41.25-45c-11.051 0-20 8.9492-20 20s8.9492 20 20 20 20-8.9492 20-20-8.9492-20-20-20zm0 5c8.2734 0 15 6.7266 15 15s-6.7266 15-15 15-15-6.7266-15-15 6.7266-15 15-15zm1.6016 3.0742c-0.92578-0.77344-2.2734-0.77344-3.1992 0 0 0-4.2266 3.5508-6.7734 7.5234-1.2734 2.0234-2.125 4.1484-2.125 6.0742 0 6 4.7266 10.824 10.5 10.824 5.7734 0 10.5-4.8242 10.5-10.824 0-1.9258-0.82422-4.0508-2.125-6.0742-2.5508-3.9766-6.7734-7.5234-6.7734-7.5234zm-1.6016 5.3008c0.92578 0.89844 2.125 2.1484 3.1992 3.5508 1.1758 1.5234 2.3008 3.1992 2.3008 4.75 0 3.1992-2.4258 5.8242-5.5 5.8242s-5.5-2.6484-5.5-5.8242c0-1.5234 1.125-3.1992 2.3008-4.75 1.0742-1.3984 2.2734-2.6484 3.1992-3.5508zm-28.75 11.625h-45c-0.69922 0-1.25-0.55078-1.25-1.25s0.55078-1.25 1.25-1.25h45c0.69922 0 1.25 0.55078 1.25 1.25s-0.55078 1.25-1.25 1.25zm-38.75-7.5v-11.25c0-0.32422-0.125-0.64844-0.375-0.875-0.22656-0.22656-0.55078-0.375-0.875-0.375s-0.64844 0.125-0.875 0.375c-0.22656 0.22656-0.375 0.55078-0.375 0.875v11.25zm27.5 0h5.0508l-0.050781-5h-5.0234v5zm-5-11.25c0-0.32422 0.125-0.64844 0.375-0.875 0.22656-0.22656 0.55078-0.375 0.875-0.375h12.5c0.32422 0 0.64844 0.125 0.875 0.375 0.22656 0.22656 0.375 0.55078 0.375 0.875s-0.125 0.64844-0.375 0.875c-0.22656 0.22656-0.55078 0.375-0.875 0.375h-12.5c-0.32422 0-0.64844-0.125-0.875-0.375-0.22656-0.22656-0.375-0.55078-0.375-0.875z" fill-rule="evenodd"/></svg>