<svg xmlns="http://www.w3.org/2000/svg" xmlns:xlink="http://www.w3.org/1999/xlink" version="1.1" x="0px" y="0px" viewBox="0 0 64 80" style="enable-background:new 0 0 64 64;" xml:space="preserve"><g><path d="M61,31h-0.19c1.347-1.298,2.19-3.115,2.19-5.129c0-2.122-0.935-4.118-2.564-5.478L57,17.531V9h2V7H49v2h2v8.531   l-0.375,0.312C50.262,17.335,49.671,17,49,17h-4V8c0-3.859-3.141-7-7-7s-7,3.141-7,7v1h-2v4h-2V1h-2v16h-2v-4h-2V8   c0-3.859-3.141-7-7-7S7,4.141,7,8v7H3v2h2v3.5l-1.466,1.101C1.947,22.789,1,24.684,1,26.667c0,1.689,0.669,3.222,1.75,4.358   C1.766,31.15,1,31.983,1,33v2c0,1.103,0.897,2,2,2v26h58V37c1.103,0,2-0.897,2-2v-2C63,31.897,62.103,31,61,31z M39,30v-7h10v2h-4   v2h4v3c0,0.552-0.448,1-1,1h-8C39.448,31,39,30.552,39,30z M51,30v-3.025C51.112,26.981,51.215,27,51.331,27   c1.667,0,2.554-0.665,3.267-1.2c0.62-0.464,1.067-0.8,2.067-0.8c1.001,0,1.448,0.336,2.068,0.8c0.536,0.403,1.172,0.878,2.164,1.09   C60.423,29.231,58.351,31,55.871,31h-5.055C50.928,30.686,51,30.352,51,30z M53,18.469V9h2v9.469l4.154,3.462   c0.891,0.743,1.492,1.752,1.73,2.863c-0.339-0.143-0.623-0.348-0.951-0.593c-0.713-0.535-1.601-1.2-3.268-1.2   s-2.554,0.665-3.267,1.2c-0.62,0.464-1.067,0.8-2.067,0.8c-0.118,0-0.223-0.014-0.331-0.024v-4.84L53,18.469z M49,21H39v-2h10V21z    M31,15h2v3c0,0.552-0.448,1-1,1s-1-0.448-1-1V15z M31,11h2v2h-2V11z M29,15v3c0,1.654,1.346,3,3,3s3-1.346,3-3V9h-2V8   c0-2.757,2.243-5,5-5s5,2.243,5,5v9h-4c-1.103,0-2,0.897-2,2v11c0,0.352,0.072,0.686,0.184,1H32.78l-0.432-1.729   C32.015,27.935,30.817,27,29.438,27H27V15H29z M29.438,29c0.46,0,0.858,0.312,0.971,0.757L30.72,31h-9.44l0.311-1.242   C21.703,29.312,22.102,29,22.562,29H29.438z M19,19h2v3c0,0.552-0.448,1-1,1s-1-0.448-1-1V19z M19,17v-2h2v2H19z M9,8   c0-2.757,2.243-5,5-5s5,2.243,5,5v5h-2v9c0,1.654,1.346,3,3,3s3-1.346,3-3v-3h2v8h-2.438c-1.379,0-2.576,0.935-2.91,2.272L19.22,31   h-5.947C14.341,29.866,15,28.344,15,26.667c0-1.983-0.947-3.878-2.533-5.066L11,20.5V17h2v-2H9V8z M3.085,27.509   c0.066,0.063,0.129,0.121,0.205,0.198C3.835,28.252,4.582,29,5.996,29c1.415,0,2.162-0.747,2.708-1.293   C9.194,27.217,9.436,27,9.998,27s0.803,0.217,1.294,0.707c0.305,0.306,0.682,0.677,1.205,0.944C11.774,30.039,10.338,31,8.667,31   H7.333C5.232,31,3.478,29.497,3.085,27.509z M4.734,23.2L7,21.5V17h2v4.5l2.267,1.7c1.059,0.794,1.698,2.049,1.728,3.372   c-0.089-0.081-0.182-0.172-0.289-0.279C12.16,25.747,11.412,25,9.998,25c-1.415,0-2.162,0.747-2.708,1.293   C6.8,26.783,6.559,27,5.996,27c-0.562,0-0.802-0.217-1.291-0.707c-0.354-0.355-0.801-0.793-1.457-1.057   C3.53,24.434,4.042,23.719,4.734,23.2z M23,37v2H5v-2H23z M49,45h4v2h-4V45z M55,49v-4h4v6H43v-6h4v4H55z M49,53h4v2h-4V53z M41,61   H25V37h16V61z M5,41h8v16H5V41z M15,41h8v16h-8V41z M5,59h18v2H5V59z M43,61v-8h4v4h8v-4h4v8H43z M59,43H43v-6h4v4h8v-4h4V43z    M49,37h4v2h-4V37z M61,35H3l-0.002-2H3h58V35z"/><rect x="17" y="45" width="2" height="4"/><rect x="9" y="45" width="2" height="4"/></g></svg>